<svg xmlns="http://www.w3.org/2000/svg" width="40" height="40" viewBox="0 0 40 40" fill="none"><g clip-path="url(#clip0_1199_102)"><path d="M33.5946 0C33.9714 0.135685 34.3785 0.163866 34.7657 0.273458C37.6892 1.09905 39.6838 3.5894 39.999 6.60265V33.3974C39.6556 36.9032 36.9106 39.666 33.3974 39.999H6.60265C3.59983 39.6827 1.09696 37.6798 0.273458 34.7657C0.163866 34.3774 0.110636 33.9787 0 33.5936V6.40643C0.395575 3.17295 3.11763 0.320426 6.40643 0H33.5946ZM15.9503 8.73708C15.0099 6.04739 11.4362 5.39296 9.61173 7.6182C9.33097 7.96055 9.16815 8.36865 8.93539 8.73917C7.82069 8.90199 4.83039 8.14738 5.03183 10.0793C5.11325 10.8569 5.65285 11.1189 6.36468 11.1752C7.19445 11.24 8.09728 11.1126 8.93539 11.1825C9.1598 11.5364 9.31427 11.9267 9.57729 12.2597C11.0531 14.1207 14.0152 14.105 15.4232 12.1814C15.6549 11.8641 15.7938 11.504 15.99 11.17L33.7105 11.1721C35.3898 11.1262 35.3898 8.79866 33.7105 8.75274L15.9503 8.73917V8.73708ZM31.0291 18.8164C29.9029 15.4786 25.1508 15.5213 24.0121 18.8331L6.05469 18.8289C4.6801 18.9865 4.6801 21.0156 6.05469 21.1732L24.0121 21.169C25.1571 24.4787 29.88 24.5256 31.0291 21.1857C32.1814 20.9655 35.0099 21.8516 34.9859 19.9614C34.9629 18.1756 32.1376 19.0356 31.0291 18.8164ZM20.9488 28.8185C19.8935 25.5401 15.0715 25.5652 14.0152 28.8342L6.22064 28.8394C4.63522 28.9218 4.63522 31.1596 6.22064 31.242L14.0152 31.2473C15.1226 34.5475 19.8581 34.5173 20.9895 31.2483L33.6364 31.2546C35.322 31.289 35.4535 28.9604 33.7804 28.8394L20.9488 28.8195V28.8185Z" fill="white"></path><path d="M17.4856 31.3777C18.2252 31.3777 18.8247 30.7781 18.8247 30.0386C18.8247 29.299 18.2252 28.6995 17.4856 28.6995C16.746 28.6995 16.1465 29.299 16.1465 30.0386C16.1465 30.7781 16.746 31.3777 17.4856 31.3777Z" fill="white"></path><path d="M12.4038 8.61507C14.2146 8.54514 14.2512 11.3121 12.4612 11.3121C10.6712 11.3121 10.715 8.68083 12.4038 8.61507Z" fill="white"></path><path d="M27.5306 21.3381C28.269 21.3381 28.8676 20.7395 28.8676 20.0011C28.8676 19.2627 28.269 18.6641 27.5306 18.6641C26.7922 18.6641 26.1936 19.2627 26.1936 20.0011C26.1936 20.7395 26.7922 21.3381 27.5306 21.3381Z" fill="white"></path></g><defs><clipPath id="clip0_1199_102"><rect width="40" height="40" fill="white"></rect></clipPath></defs></svg>