<svg xmlns="http://www.w3.org/2000/svg" width="40" height="40" viewBox="0 0 40 40" fill="none"><g clip-path="url(#clip0_790_75)"><path d="M0.0134946 17.5827C0.174187 16.6651 0.342185 15.8153 0.703222 14.9509C2.04094 11.7479 5.32471 9.49294 8.83178 9.60256C9.34203 2.77494 17.9433 5.22137e-05 22.1588 5.54879C26.0259 2.44609 31.6136 2.42104 35.4327 5.62918C39.9279 9.40629 40.6218 16.1744 36.8998 20.747C37.2431 21.2502 37.6782 21.6793 38.0226 22.1835C41.5223 27.3022 40.2347 34.2832 35.2637 37.887C29.9973 41.7049 22.7338 40.1796 19.3822 34.6977L19.2205 34.7468C16.3416 38.5479 10.6464 39.1085 7.00572 36.0225C4.0736 33.5378 3.12092 29.6156 4.3929 25.9941C2.30389 24.7757 0.750178 22.6752 0.222187 20.3033C0.153318 19.9922 0.0385377 19.5224 0.0124512 19.2239V17.5827H0.0134946ZM19.0441 21.4392C17.9297 20.3973 17.2243 22.075 16.1433 22.194C12.4181 22.6032 12.0342 17.1996 15.3701 16.8102C16.6337 16.663 16.6953 17.1578 17.5854 17.3896C18.8939 17.731 19.6535 16.1921 18.6841 15.3528C16.9332 13.838 13.7767 14.3349 12.1959 15.8988C8.25161 19.7991 12.7761 26.4158 17.7064 24.1473C18.6121 23.7307 20.1262 22.4487 19.0452 21.4392H19.0441ZM30.5504 19.5496C30.5504 16.7528 28.285 14.4863 25.4896 14.4863C22.6941 14.4863 20.4288 16.7528 20.4288 19.5496C20.4288 22.3464 22.6941 24.6129 25.4896 24.6129C28.285 24.6129 30.5504 22.3464 30.5504 19.5496ZM31.7253 30.6324C31.6533 30.5708 32.5277 29.4413 32.6164 29.2982C33.1893 28.3764 33.6181 27.5381 33.3093 26.4304C32.606 23.9134 29.0488 23.7871 28.1504 26.2352C27.5275 27.9327 29.4766 28.6729 30.1799 27.4838C30.3364 27.2197 30.373 26.6006 30.8665 26.8397C31.3225 27.06 30.8154 27.7678 30.6505 28.0329C30.1789 28.7919 28.2871 30.9582 28.2161 31.619C28.1514 32.2276 28.5886 32.8551 29.2064 32.9595C29.8669 33.0701 31.8453 33.0472 32.5496 32.9814C34.0606 32.8394 34.0449 30.7974 32.5465 30.6335C32.2846 30.6053 31.9924 30.6544 31.7263 30.6335L31.7253 30.6324Z" fill="white"></path><path d="M4.23111 0C7.61296 0.573144 8.55312 5.15829 5.50413 6.86102C3.19286 8.15347 0.506996 6.74305 0.0134397 4.21976C0.0447435 3.87211 -0.0293422 3.46392 0.0134397 3.12567C0.157437 1.99817 1.1289 0.762104 2.17236 0.323633L3.13756 0H4.23111Z" fill="white"></path><path d="M25.4896 22.2712C26.992 22.2712 28.2099 21.0527 28.2099 19.5495C28.2099 18.0464 26.992 16.8279 25.4896 16.8279C23.9872 16.8279 22.7693 18.0464 22.7693 19.5495C22.7693 21.0527 23.9872 22.2712 25.4896 22.2712Z" fill="white"></path></g><defs><clipPath id="clip0_790_75"><rect width="40" height="40" fill="white"></rect></clipPath></defs></svg>