<svg xmlns="http://www.w3.org/2000/svg" width="40" height="40" viewBox="0 0 40 40" fill="none"><g clip-path="url(#clip0_1199_92)"><path d="M16.9303 13.415H18.2333V8.82395L23.7219 3.35268V0.199675L23.8615 0.0605535H27.1171L27.2566 0.199675V4.83622L21.768 10.4011V13.415H23.071V10.7717L28.5597 5.30038V0.199675L28.6992 0.0605535H33.4444L40.0013 6.69286V33.3043L33.4888 39.8885C32.0284 39.8468 30.2103 40.1073 28.788 39.9417C28.6523 39.9252 28.5482 39.9303 28.467 39.7975V37.7575C28.467 37.6411 28.1981 37.0441 28.113 36.905C27.5129 35.9299 26.0716 35.634 25.1239 36.2802C24.8397 36.4737 24.1875 37.2452 24.1875 37.5728V39.7988L24.048 39.9379H17.722L17.5824 39.7988V37.1099L23.071 31.6386V26.5847H21.768V31.1757L16.2794 36.647V39.8L16.1398 39.9391H12.8842L12.7446 39.8V35.1635L18.2333 29.5986V26.5847H16.9303V29.228L11.4416 34.6993V39.8L11.3021 39.9391H6.55692L0 33.3056V6.69413L6.51251 0.108614C7.97285 0.15035 9.79097 -0.110187 11.2132 0.0554946C11.349 0.0719362 11.453 0.0668773 11.5342 0.199675V2.2397C11.5342 2.35606 11.8032 2.95302 11.8882 3.09214C12.4883 4.06726 13.9296 4.36321 14.8774 3.71692C15.1616 3.52342 15.8137 2.75192 15.8137 2.42436V0.199675L15.9533 0.0605535H22.2793L22.4189 0.199675V2.88852L16.9303 8.35979V13.4137V13.415ZM14.6046 15.5486H9.81381L7.27503 12.9799C7.36258 12.3336 7.07584 9.52462 7.30295 9.15026C7.36638 9.04528 7.72417 8.87834 7.89165 8.62412C8.86859 7.14184 7.0327 5.45468 5.62819 6.55374C4.97986 7.0609 4.91515 8.16376 5.44676 8.77336C5.57617 8.9226 5.79567 8.99975 5.86672 9.09587C6.08494 9.39182 5.89336 12.2539 5.94919 12.9078C5.96949 13.1532 6.00628 13.4365 6.13569 13.6489C6.26511 13.8614 8.85971 16.4466 9.10965 16.6198C9.27459 16.7337 9.3799 16.7678 9.57529 16.8057C10.9874 17.0764 12.9768 16.7008 14.4511 16.8336C14.7442 16.7374 14.5501 15.8205 14.6034 15.5486H14.6046ZM25.3954 15.5486C25.4499 15.8218 25.2545 16.7387 25.5476 16.8336C27.0219 16.6995 29.0126 17.0764 30.4234 16.8057C30.6176 16.7678 30.7241 16.7337 30.8891 16.6198C31.139 16.4478 33.7349 13.8602 33.863 13.6489C34.3756 12.8079 33.7603 9.6005 34.1333 9.09587C34.2094 8.99343 34.4289 8.92892 34.5558 8.77463C35.0709 8.14984 35.029 7.06596 34.3731 6.55248C33.0016 5.47997 31.172 7.05837 32.0754 8.56468C32.2784 8.90363 32.5727 8.97319 32.7465 9.28685L32.7262 12.9786L30.1875 15.5473H25.3966L25.3954 15.5486ZM24.1913 14.7075H15.8074V25.2909H24.1913V14.7075ZM6.48714 18.4461C4.19831 18.5827 4.98874 22.5021 7.3537 21.35C7.7026 21.1805 7.92717 20.6872 8.13779 20.648L14.5171 20.6088L14.5907 20.4975C14.5767 20.2458 14.7252 19.4541 14.4511 19.3643L8.13652 19.3517C7.92591 19.3112 7.70134 18.8192 7.35243 18.6497C7.12659 18.5397 6.73201 18.4322 6.48587 18.4474L6.48714 18.4461ZM33.3746 18.4474C33.1449 18.4562 32.7935 18.5688 32.5867 18.6826C32.2784 18.8508 32.0741 19.3112 31.8622 19.3517L25.5476 19.3643C25.2736 19.4541 25.422 20.2458 25.4081 20.4975L25.4817 20.6088L31.8609 20.648C32.0716 20.6885 32.2961 21.1805 32.645 21.35C34.0381 22.0279 35.3297 20.7416 34.7664 19.3289C34.5672 18.8306 33.9087 18.4284 33.3733 18.4474H33.3746ZM14.6046 24.4511C14.5501 24.1779 14.7455 23.261 14.4524 23.1661C12.9781 23.3002 10.9874 22.9233 9.57655 23.194C9.38243 23.2319 9.27586 23.266 9.11092 23.3799C8.86098 23.5519 6.26511 26.1395 6.13696 26.3507C5.62439 27.1918 6.23846 30.4005 5.86672 30.9038C5.79567 30.9999 5.57617 31.0771 5.44676 31.2263C4.91515 31.8372 4.97859 32.9388 5.62819 33.446C7.03397 34.545 8.86986 32.8566 7.89165 31.3756C7.71402 31.1049 7.29533 30.919 7.25473 30.7116L7.27503 27.0198L9.81381 24.4511H14.6046ZM25.3954 24.4511H30.1862L32.725 27.0198L32.7453 30.7116C32.5714 31.0252 32.2771 31.0948 32.0741 31.4337C31.172 32.9401 33.0003 34.5185 34.3718 33.446C35.0201 32.9388 35.0836 31.8359 34.5532 31.2263C34.4238 31.0771 34.2043 30.9999 34.1333 30.9038C33.9151 30.6079 34.1066 27.7458 34.0508 27.0919C34.0305 26.8465 33.9937 26.5632 33.8643 26.3507C33.7349 26.1383 31.1403 23.5531 30.8904 23.3799C30.7254 23.266 30.6201 23.2319 30.4247 23.194C29.0126 22.9233 27.0232 23.2989 25.5489 23.1661C25.2558 23.2622 25.4499 24.1792 25.3966 24.4511H25.3954Z" fill="white"></path></g><defs><clipPath id="clip0_1199_92"><rect width="40" height="40" fill="white"></rect></clipPath></defs></svg>